<svg width="48" height="48" viewBox="0 0 48 48" fill="none" xmlns="http://www.w3.org/2000/svg">
<path d="M19.9964 12.4428C24.0743 10.1758 23.0747 10.4618 24.8472 9.49687C26.6196 8.53197 28.8214 9.26963 28.8214 9.26963C28.8214 9.26963 28.8954 10.7847 27.6031 13.8164C26.3108 16.8482 24.2202 19.0015 24.9452 21.6693C25.6701 24.3371 24.1697 26.6301 23.4684 27.1806C22.7671 27.7311 20.6646 28.2753 18.6711 27.9995C16.6775 27.7238 11.942 24.8674 9.72403 24.0516C7.506 23.2357 5.47981 23.3574 3.83072 23.1739C2.18162 22.9905 0.113746 21.4765 0.562199 21.0429C1.01065 20.6093 6.23731 19.9792 7.94607 20.2156C9.65482 20.4519 17.0739 22.6614 18.0897 22.4536C19.1055 22.2459 18.4866 20.9725 18.4866 20.9725C18.4866 20.9725 16.0504 18.2707 13.0561 17.2653C10.0617 16.26 2.40786 14.1537 2.01116 13.5675C1.61446 12.9813 5.01574 11.8621 6.87646 11.8069C8.73718 11.7517 15.9186 14.7097 19.9964 12.4428Z" fill="#FFAB09"/>
<path d="M36.8874 16.0281C38.441 16.6503 38.5305 17.5393 38.4525 18.1362C38.4525 18.1362 37.9479 20.0192 35.5741 19.0948C33.2003 18.1704 33.258 16.5795 33.258 16.5795C33.8122 16.1926 35.3338 15.4059 36.8874 16.0281Z" fill="#BAA479"/>
<path d="M38.0691 18.1494C37.8315 18.9005 36.8169 19.2494 35.8029 18.9287C34.7889 18.6079 34.1595 17.739 34.3971 16.9879C34.6347 16.2368 35.6493 15.8879 36.6633 16.2087C37.6773 16.5294 38.3067 17.3983 38.0691 18.1494Z" fill="url(#paint0_radial_443_44)"/>
<path d="M18.8652 19.0391C20.9522 19.9306 21.502 21.1855 21.6324 21.6634C21.7627 22.1414 21.217 23.2135 21.217 23.2135L18.1858 22.4013C18.1858 22.4013 18.9418 22.1977 18.4904 21.2646C18.039 20.3314 5.51028 14.87 5.51028 14.87C5.51028 14.87 16.7782 18.1477 18.8652 19.0391Z" fill="#E29076"/>
<path d="M14.4331 21.8018C14.4331 21.8018 7.20071 20.8238 5.46854 20.9504C3.73638 21.0769 1.70163 20.6794 1.70163 20.6794C1.70163 20.6794 5.6833 20.0111 7.42898 20.1097C9.17465 20.2082 14.4331 21.8018 14.4331 21.8018Z" fill="#E29076"/>
<path d="M16.6506 15.3005C16.6506 15.3005 16.0213 15.3236 14.5796 15.061C13.1379 14.7984 13.2504 14.3271 13.2504 14.3271C13.2504 14.3271 13.827 14.0862 15.5598 14.3198C17.2926 14.5533 16.6506 15.3005 16.6506 15.3005Z" fill="#E29076"/>
<path d="M24.193 9.87108C24.193 9.87108 23.6741 11.3934 22.4697 12.0306C21.2653 12.6677 18.2741 13.0845 18.2741 13.0845C18.2741 13.0845 19.7196 12.512 20.6184 12.0513C21.5171 11.5907 24.193 9.87108 24.193 9.87108Z" fill="#FFD88C"/>
<path d="M35.6037 11.7884C37.2798 12.4221 39.3594 13.7546 40.5275 14.769C41.6955 15.7835 43.6582 16.8631 44.9922 19.3249C46.3261 21.7867 47.061 23.8665 47.2355 25.833C47.41 27.7995 47.0375 31.9453 47.0375 31.9453L45.917 39.5841L31.2267 39.5597C31.2267 39.5597 29.2168 35.6246 25.7995 33.0846C22.3822 30.5445 17.913 27.7964 17.913 27.7964L21.8924 25.2077L28.8556 9.27878C28.8556 9.27878 30.9536 10.5424 31.5392 10.6993C32.1248 10.8562 33.9276 11.1547 35.6037 11.7884Z" fill="url(#paint1_linear_443_44)"/>
<path d="M19.9964 12.4428C24.0743 10.1758 23.0747 10.4618 24.8472 9.49687C26.6196 8.53197 28.8214 9.26963 28.8214 9.26963C28.8214 9.26963 28.8954 10.7847 27.6031 13.8164C26.3108 16.8482 24.2202 19.0015 24.9452 21.6693C25.6701 24.3371 24.1697 26.6301 23.4684 27.1806C22.7671 27.7311 20.6646 28.2753 18.6711 27.9995C16.6775 27.7238 11.942 24.8674 9.72403 24.0516C7.506 23.2357 5.47981 23.3574 3.83072 23.1739C2.18162 22.9905 0.113746 21.4765 0.562199 21.0429C1.01065 20.6093 6.23731 19.9792 7.94607 20.2156C9.65482 20.4519 17.0739 22.6614 18.0897 22.4536C19.1055 22.2459 18.4866 20.9725 18.4866 20.9725C18.4866 20.9725 16.0504 18.2707 13.0561 17.2653C10.0617 16.26 2.40786 14.1537 2.01116 13.5675C1.61446 12.9813 5.01574 11.8621 6.87646 11.8069C8.73718 11.7517 15.9186 14.7097 19.9964 12.4428Z" fill="#FFAB09"/>
<path d="M36.8874 16.0281C38.441 16.6503 38.5305 17.5393 38.4525 18.1362C38.4525 18.1362 37.9479 20.0192 35.5741 19.0948C33.2003 18.1704 33.258 16.5795 33.258 16.5795C33.8122 16.1926 35.3338 15.4059 36.8874 16.0281Z" fill="#BAA479"/>
<path d="M38.0691 18.1494C37.8315 18.9005 36.8169 19.2494 35.8029 18.9287C34.7889 18.6079 34.1595 17.739 34.3971 16.9879C34.6347 16.2368 35.6493 15.8879 36.6633 16.2087C37.6773 16.5294 38.3067 17.3983 38.0691 18.1494Z" fill="url(#paint2_radial_443_44)"/>
<path d="M18.8652 19.0391C20.9522 19.9306 21.502 21.1855 21.6324 21.6634C21.7627 22.1414 21.217 23.2135 21.217 23.2135L18.1858 22.4013C18.1858 22.4013 18.9418 22.1977 18.4904 21.2646C18.039 20.3314 5.51028 14.87 5.51028 14.87C5.51028 14.87 16.7782 18.1477 18.8652 19.0391Z" fill="#E29076"/>
<path d="M14.4331 21.8018C14.4331 21.8018 7.20071 20.8238 5.46854 20.9504C3.73638 21.0769 1.70163 20.6794 1.70163 20.6794C1.70163 20.6794 5.6833 20.0111 7.42898 20.1097C9.17465 20.2082 14.4331 21.8018 14.4331 21.8018Z" fill="#E29076"/>
<path d="M16.6506 15.3005C16.6506 15.3005 16.0213 15.3236 14.5796 15.061C13.1379 14.7984 13.2504 14.3271 13.2504 14.3271C13.2504 14.3271 13.827 14.0862 15.5598 14.3198C17.2926 14.5533 16.6506 15.3005 16.6506 15.3005Z" fill="#E29076"/>
<path d="M24.193 9.87108C24.193 9.87108 23.6741 11.3934 22.4697 12.0306C21.2653 12.6677 18.2741 13.0845 18.2741 13.0845C18.2741 13.0845 19.7196 12.512 20.6184 12.0513C21.5171 11.5907 24.193 9.87108 24.193 9.87108Z" fill="#FFD88C"/>
<defs>
<radialGradient id="paint0_radial_443_44" cx="0" cy="0" r="1" gradientUnits="userSpaceOnUse" gradientTransform="translate(21.7252 24.2921) rotate(87.5047) scale(9.94927 9.22851)">
<stop stop-color="#828282"/>
<stop offset="1"/>
</radialGradient>
<linearGradient id="paint1_linear_443_44" x1="24.6368" y1="9" x2="24.6368" y2="39.5841" gradientUnits="userSpaceOnUse">
<stop stop-color="#D2D2D2"/>
<stop offset="0.535417" stop-color="#DCDCDC"/>
<stop offset="1" stop-color="#B7B7B7"/>
</linearGradient>
<radialGradient id="paint2_radial_443_44" cx="0" cy="0" r="1" gradientUnits="userSpaceOnUse" gradientTransform="translate(21.7252 24.2921) rotate(87.5047) scale(9.94927 9.22851)">
<stop stop-color="#828282"/>
<stop offset="1"/>
</radialGradient>
</defs>
</svg>
