<?xml version="1.0" encoding="UTF-8" standalone="no"?>
<svg
        xmlns:dc="http://purl.org/dc/elements/1.1/"
        xmlns:cc="http://creativecommons.org/ns#"
        xmlns:rdf="http://www.w3.org/1999/02/22-rdf-syntax-ns#"
        xmlns:svg="http://www.w3.org/2000/svg"
        xmlns="http://www.w3.org/2000/svg"
        xmlns:sodipodi="http://sodipodi.sourceforge.net/DTD/sodipodi-0.dtd"
        xmlns:inkscape="http://www.inkscape.org/namespaces/inkscape"
        width="264.58334mm"
        height="317.32147mm"
        viewBox="0 0 264.58334 317.32147"
        version="1.1"
        id="svg2716"
        inkscape:version="1.0.1 (3bc2e813f5, 2020-09-07)"
        sodipodi:docname="logo_blue_and_dark_blue.svg">
    <defs
            id="defs2710">
        <clipPath
                clipPathUnits="userSpaceOnUse"
                id="clipPath896">
            <path
                    d="M 0,0 H 792 V 612 H 0 Z"
                    id="path894"/>
        </clipPath>
    </defs>
    <sodipodi:namedview
            id="base"
            pagecolor="#ffffff"
            bordercolor="#666666"
            borderopacity="1.0"
            inkscape:pageopacity="0.0"
            inkscape:pageshadow="2"
            inkscape:zoom="0.35"
            inkscape:cx="-58.155082"
            inkscape:cy="95.340182"
            inkscape:document-units="mm"
            inkscape:current-layer="layer1"
            inkscape:document-rotation="0"
            showgrid="false"
            inkscape:window-width="1533"
            inkscape:window-height="991"
            inkscape:window-x="26"
            inkscape:window-y="23"
            inkscape:window-maximized="0"/>
    <metadata
            id="metadata2713">
        <rdf:RDF>
            <cc:Work
                    rdf:about="">
                <dc:format>image/svg+xml</dc:format>
                <dc:type
                        rdf:resource="http://purl.org/dc/dcmitype/StillImage"/>
                <dc:title></dc:title>
            </cc:Work>
        </rdf:RDF>
    </metadata>
    <g
            inkscape:label="Layer 1"
            inkscape:groupmode="layer"
            id="layer1"
            transform="translate(-121.2202,-122.94124)">
        <g
                id="g890"
                transform="matrix(7.1406724,0,0,-7.1406724,-1420.1275,1514.5926)">
            <g
                    id="g892"
                    clip-path="url(#clipPath896)">
                <g
                        id="g898"
                        transform="translate(234.3811,171.6863)">
                    <path
                            d="m 0,0 c -1.666,0 -3.016,-1.35 -3.016,-3.016 0,-1.665 1.35,-3.016 3.016,-3.016 1.666,0 3.016,1.351 3.016,3.016 C 3.013,-1.351 1.665,-0.003 0,0"
                            style="fill:#00ace2;fill-opacity:1;fill-rule:nonzero;stroke:none"
                            id="path900"/>
                </g>
                <g
                        id="g902"
                        transform="translate(215.8547,187.1968)">
                    <path
                            d="m 0,0 3.139,-3.139 c 3.939,3.939 9.386,6.37 15.387,6.37 6.002,0 11.449,-2.432 15.388,-6.37 L 37.053,0 C 32.313,4.74 25.759,7.694 18.526,7.694 11.294,7.694 4.739,4.74 0,0"
                            style="fill:#00ace2;fill-opacity:1;fill-rule:nonzero;stroke:none"
                            id="path904"/>
                </g>
                <g
                        id="g906"
                        transform="translate(221.5171,181.5344)">
                    <path
                            d="m 0,0 3.139,-3.139 c 2.493,2.493 5.94,4.031 9.724,4.031 3.784,0 7.233,-1.538 9.726,-4.031 L 25.729,0 C 22.436,3.293 17.881,5.356 12.865,5.356 7.848,5.356 3.294,3.294 0.001,0"
                            style="fill:#00ace2;fill-opacity:1;fill-rule:nonzero;stroke:none"
                            id="path908"/>
                </g>
                <g
                        id="g910"
                        transform="translate(227.1489,175.9019)">
                    <path
                            d="m 0,0 3.139,-3.139 c 2.262,2.257 5.924,2.257 8.186,0 L 14.464,0 C 12.547,1.918 9.944,2.993 7.232,2.985 4.432,2.985 1.876,1.846 0,0"
                            style="fill:#00ace2;fill-opacity:1;fill-rule:nonzero;stroke:none"
                            id="path912"/>
                </g>
                <g
                        id="g914"
                        transform="translate(245.5215,176.7642)">
                    <path
                            d="m 0,0 c 1.662,-2.277 2.647,-5.078 2.647,-8.094 0,-7.601 -6.186,-13.787 -13.787,-13.787 -7.602,0 -13.787,6.186 -13.787,13.787 0,3.016 0.984,5.817 2.646,8.094 l -3.17,3.17 c -2.462,-3.108 -3.908,-7.017 -3.908,-11.264 0,-10.032 8.186,-18.218 18.219,-18.218 10.032,0 18.218,8.186 18.218,18.218 0,4.247 -1.477,8.156 -3.908,11.264 z"
                            style="fill:#002843;fill-opacity:1;fill-rule:nonzero;stroke:none"
                            id="path916"/>
                </g>
            </g>
        </g>
    </g>
</svg>
